<svg width="668" height="190" viewBox="0 0 668 190" fill="none" xmlns="http://www.w3.org/2000/svg">
<path d="M34.3263 0.685984C20.6271 6.42661 5.62319 22.6047 0.926319 42.8274C-5.07524 68.5297 19.9748 79.3586 21.9318 75.836C24.4107 71.661 17.4958 70.2258 16.0607 56.918C14.2341 39.6961 22.1927 20.3868 32.3693 12.0368C34.1959 10.4712 34.1959 12.6891 34.1959 16.7336C34.1959 23.9094 33.8044 88.8829 33.8044 102.321C33.8044 120.587 33.0216 126.458 31.7169 132.199C30.2818 137.939 28.0638 141.853 29.7599 143.419C31.5865 145.115 39.6755 141.07 44.2419 134.677C49.8521 126.98 51.6787 117.586 52.0701 107.54C52.4615 95.4063 52.4615 75.9665 52.4615 65.0071C52.4615 54.8305 52.5919 25.2141 52.331 7.47037C52.0701 2.90397 39.9365 -1.79292 34.3263 0.685984Z" fill="#343433"/>
<path d="M519.801 86.404C519.409 95.9282 517.191 103.365 514.582 108.584C509.493 118.76 499.056 121.891 494.49 107.279C492.011 99.3204 491.88 86.0126 493.707 74.9227C495.533 63.5719 500.491 55.0915 508.711 55.8743C516.93 56.6571 520.714 67.0946 519.801 86.404ZM382.939 145.506C382.808 161.293 380.329 175.253 374.98 179.298C367.413 185.038 357.236 180.733 359.324 169.121C361.151 158.945 370.022 148.507 382.939 135.721C382.939 135.721 382.939 138.591 382.939 145.506ZM380.851 86.2735C380.329 94.8844 378.111 103.626 375.633 108.584C370.544 118.76 359.976 121.891 355.54 107.279C352.54 97.2329 353.322 84.3165 354.758 76.2274C356.715 65.6594 361.411 55.8743 369.761 55.8743C377.981 55.8743 382.026 64.7462 380.851 86.2735ZM301.657 86.143C301.135 95.2758 299.308 102.974 296.438 108.584C291.219 118.63 280.912 121.891 276.346 107.279C273.084 96.711 274.128 82.3595 275.563 74.6618C277.52 63.1805 282.608 54.961 290.567 55.7438C298.656 56.6571 302.57 67.0946 301.657 86.143ZM664.882 96.8415C662.925 96.8415 662.011 98.929 661.229 102.321C658.619 114.324 655.879 116.934 652.357 116.934C648.443 116.934 644.92 111.063 644.007 99.1899C643.354 89.9266 643.354 72.7048 644.268 55.6133C644.398 52.0907 643.485 48.568 634.091 45.1758C630.047 43.7407 624.176 41.5227 621.175 48.568C612.955 68.5298 609.693 84.4469 608.911 90.8399C608.911 91.2313 608.519 91.2313 608.389 90.4485C607.867 85.2298 606.823 75.9665 606.693 56.1352C606.693 52.3516 605.91 48.9594 601.604 46.3501C598.865 44.654 590.515 41.5227 587.514 45.1758C584.904 48.1766 581.904 56.2657 578.772 65.7899C576.163 73.4876 574.467 78.8368 574.467 78.8368C574.467 78.8368 574.467 57.9618 574.467 50.0032C574.467 47.0024 572.379 45.9587 571.858 45.8282C569.118 45.0454 563.508 43.6102 561.29 43.6102C558.419 43.6102 557.767 45.1759 557.767 47.5243C557.767 47.7852 557.375 75.0532 557.375 94.1016C557.375 94.8844 557.375 95.7977 557.375 96.8415C555.81 105.583 550.591 117.456 544.981 117.456C539.371 117.456 536.761 112.498 536.761 89.7962C536.761 76.4883 537.153 70.7477 537.414 61.2235C537.544 55.7438 537.805 51.4384 537.675 50.5251C537.675 47.5243 532.586 46.0891 530.108 45.5673C527.759 45.0454 525.672 44.7844 523.976 44.9149C521.627 45.0454 520.061 46.611 520.061 48.568C520.061 49.7423 520.061 51.8298 520.061 51.8298C517.061 47.1329 512.364 44.0016 509.233 43.0883C500.752 40.6094 491.88 42.8274 485.096 52.2212C479.747 59.6579 476.615 68.1383 475.311 80.2719C474.397 89.1438 474.658 98.1462 476.354 105.713C474.397 114.324 470.744 117.847 466.7 117.847C460.829 117.847 456.654 108.323 457.045 91.7532C457.306 80.9243 459.524 73.2266 461.872 62.2673C462.916 57.5704 462.003 55.0915 460.046 52.743C458.089 50.5251 454.175 49.4813 448.304 50.786C444.129 51.6993 438.258 52.743 432.908 53.6563C432.908 53.6563 433.169 52.3516 433.561 50.0032C434.996 38.0001 421.949 38.9133 417.774 42.8274C415.295 45.1758 413.599 47.7852 412.947 52.743C411.903 60.4407 418.165 64.0938 418.165 64.0938C416.078 73.4876 410.99 85.8821 405.771 94.8845C403.031 99.7118 400.813 103.234 398.073 107.018C398.073 105.583 398.073 104.148 398.073 102.843C398.073 83.0118 398.334 67.3555 398.334 61.7454C398.465 56.2657 398.726 52.0907 398.595 51.1774C398.595 48.9595 397.29 48.1766 394.681 47.1329C392.333 46.2196 389.593 45.5673 386.722 45.3063C383.069 45.0454 380.982 46.872 380.982 49.2204C380.982 49.6118 380.982 52.2212 380.982 52.2212C377.981 47.5243 373.284 44.393 370.153 43.4798C361.672 41.0008 352.801 43.2188 346.016 52.6126C340.667 60.0493 337.275 70.4868 336.231 80.5329C335.318 89.7962 335.448 97.7547 336.753 104.409C335.448 111.063 331.534 118.108 327.098 118.108C321.488 118.108 318.226 113.15 318.226 90.4485C318.226 77.1407 318.618 71.4001 318.879 61.8759C319.009 56.3962 319.27 52.0907 319.14 51.1774C319.14 48.1766 314.051 46.7415 311.572 46.2196C309.093 45.6977 307.006 45.4368 305.31 45.5673C303.092 45.6977 301.657 47.6548 301.657 49.0899V52.4821C298.656 47.7852 293.959 44.654 290.828 43.7407C282.347 41.2618 273.476 43.4797 266.691 52.8735C262.255 59.0055 258.733 65.6594 256.906 80.6633C256.384 84.9688 256.123 89.0133 256.123 92.7969C254.427 103.495 246.599 115.89 240.336 115.89C236.683 115.89 233.161 108.714 233.161 93.3188C233.161 72.8352 234.465 43.8712 234.596 41.0009C234.596 41.0009 242.554 40.8704 244.12 40.8704C248.165 40.8704 251.687 40.8704 257.036 40.6094C259.646 40.479 262.255 30.9548 259.515 29.6501C258.211 29.1282 249.469 28.6063 245.947 28.6063C242.946 28.4759 234.857 27.954 234.857 27.954C234.857 27.954 235.64 8.64459 235.77 6.55709C235.901 4.861 233.683 3.94773 232.508 3.42585C229.508 2.12116 226.637 1.46882 223.506 0.816475C219.07 -0.0968058 216.983 0.816467 216.591 4.60006C215.939 10.3407 215.678 27.1712 215.678 27.1712C212.416 27.1712 201.065 26.5188 197.804 26.5188C194.803 26.5188 191.411 39.6962 195.716 39.8266C200.544 39.9571 209.024 40.218 214.765 40.3485C214.765 40.3485 214.504 69.9649 214.504 78.9672C214.504 79.8805 214.504 80.9243 214.504 81.8376C211.372 98.0157 200.544 106.757 200.544 106.757C202.892 96.0587 198.065 88.1001 189.454 81.3157C186.322 78.8368 180.06 74.1399 173.015 68.9212C173.015 68.9212 177.059 64.8766 180.712 56.918C183.322 51.1774 183.322 44.654 177.059 43.2188C166.752 40.8704 158.141 48.4376 155.662 56.5266C153.705 62.7891 154.749 67.486 158.663 72.3134C158.924 72.7048 159.315 72.9657 159.576 73.3571C157.228 77.9235 153.966 83.9251 151.357 88.6219C143.79 101.669 138.049 111.976 133.743 111.976C130.351 111.976 130.351 101.538 130.351 91.6227C130.351 83.1423 131.004 70.4868 131.526 57.3094C131.656 53.004 129.568 50.5251 125.915 48.1766C123.697 46.8719 119.001 44.1321 116.261 44.1321C112.216 44.1321 100.343 44.654 89.1232 77.0102C87.688 81.0547 84.9482 88.4915 84.9482 88.4915L85.2091 49.6118C85.2091 48.6985 84.6872 47.7852 83.6435 47.2634C81.8169 46.2196 76.7286 44.1321 72.2927 44.1321C70.2052 44.1321 69.031 45.1758 69.031 47.1329L68.6396 108.062C68.6396 112.628 68.7701 118.108 69.1615 120.456C69.5529 122.805 70.3357 124.762 71.249 125.936C72.1622 127.11 73.206 127.893 74.9021 128.284C76.4677 128.676 85.3396 129.72 85.8615 126.327C86.3833 122.283 86.3833 117.847 91.0802 101.408C98.3865 75.836 107.78 63.4415 112.216 59.0055C112.999 58.2227 113.912 58.2227 113.782 59.3969C113.651 65.0071 112.868 78.9673 112.477 90.8399C111.303 122.674 117.043 128.545 125.393 128.545C131.656 128.545 140.658 122.283 150.183 106.366C156.184 96.4501 161.925 86.6649 166.1 79.7501C168.97 82.4899 172.232 85.3602 175.494 88.361C183.061 95.5368 185.54 102.321 183.843 108.845C182.539 113.802 177.842 118.891 169.361 113.933C166.883 112.498 165.839 111.324 163.36 109.758C162.055 108.845 159.968 108.584 158.794 109.497C155.662 111.845 153.836 114.846 152.792 118.63C151.748 122.283 155.401 124.24 159.185 125.936C162.447 127.371 169.492 128.676 173.928 128.806C191.28 129.328 205.24 120.456 215.026 97.2329C216.722 117.325 224.158 128.545 237.075 128.545C245.686 128.545 254.297 117.456 258.08 106.496C259.124 110.932 260.82 114.846 262.777 118.108C272.693 133.764 291.872 130.372 301.526 117.064C304.527 112.889 304.919 111.454 304.919 111.454C306.354 123.979 316.4 128.415 322.271 128.415C328.794 128.415 335.448 125.284 340.145 114.716C340.667 115.89 341.319 116.934 341.972 117.977C351.887 133.634 371.066 130.241 380.721 116.934C381.112 116.281 381.634 115.759 381.895 115.238L382.156 123.457C382.156 123.457 376.676 128.545 373.284 131.546C358.411 145.245 347.06 155.552 346.277 167.556C345.233 182.951 357.628 188.691 367.152 189.344C377.198 190.127 385.809 184.647 391.028 176.819C395.725 170.034 398.726 155.291 398.465 140.809C398.334 135.069 398.204 127.632 398.073 119.674C403.292 113.541 409.163 105.974 414.643 96.972C420.514 87.1868 426.907 74.0094 430.168 63.8329C430.168 63.8329 435.648 63.8329 441.519 63.4415C443.346 63.311 443.998 63.7024 443.607 65.1376C443.215 66.8337 436.17 93.8407 442.563 111.845C446.999 124.109 456.784 128.154 462.655 128.154C469.44 128.154 476.093 122.935 479.616 115.368C480.008 116.281 480.529 117.064 480.921 117.847C490.836 133.503 510.015 130.111 519.67 116.803C521.888 113.802 523.062 111.193 523.062 111.193C525.15 124.24 535.326 128.284 541.067 128.284C547.068 128.284 552.809 125.806 557.506 114.846C557.636 119.673 558.028 123.718 558.55 124.892C558.811 125.675 560.507 126.588 561.811 127.11C567.291 129.198 573.032 128.154 575.119 127.763C576.554 127.502 577.729 126.327 577.859 123.327C578.251 115.498 577.99 102.321 580.338 92.4055C584.383 75.9665 588.036 69.5735 589.862 66.4423C590.906 64.6157 591.95 64.3548 591.95 66.3118C592.08 70.0954 592.211 81.3157 593.776 96.1891C594.951 107.149 596.386 113.672 597.56 115.759C600.952 121.631 604.997 121.891 608.389 121.891C610.476 121.891 615.043 121.239 614.521 117.586C614.39 115.759 614.651 104.409 618.565 88.2305C621.175 77.6626 625.48 68.0079 627.046 64.6157C627.568 63.311 627.829 64.3548 627.829 64.4852C627.437 71.7915 626.785 95.6673 629.786 108.714C633.83 126.458 645.442 128.415 649.486 128.415C658.097 128.415 665.273 121.761 667.622 104.409C668.274 100.103 667.491 96.8415 664.882 96.8415Z" fill="#343433"/>
</svg>
